<svg xmlns="http://www.w3.org/2000/svg" width="1em" height="1em" viewBox="0 0 24 24">
<path fill="currentColor" d="M6 3.262c0.637 0 1.247 0.222 1.697 0.617s0.703 0.931 0.703 1.489-0.253 1.094-0.703 1.489c-0.45 0.395-1.061 0.617-1.697 0.617s-1.247-0.222-1.697-0.617c-0.45-0.395-0.703-0.931-0.703-1.489s0.253-1.094 0.703-1.489c0.45-0.395 1.061-0.617 1.697-0.617zM18 0.103c1.591 0 3.117 0.555 4.243 1.542s1.757 2.326 1.757 3.723-0.632 2.736-1.757 3.723c-1.125 0.987-2.651 1.542-4.243 1.542h-12c-1.591 0-3.117-0.555-4.243-1.542s-1.757-2.327-1.757-3.723 0.632-2.736 1.757-3.723c1.125-0.987 2.651-1.542 4.243-1.542h12zM6 2.209c-0.955 0-1.87 0.333-2.546 0.925s-1.054 1.396-1.054 2.234 0.379 1.641 1.054 2.234c0.675 0.592 1.591 0.925 2.546 0.925h12c0.955 0 1.87-0.333 2.546-0.925s1.054-1.396 1.054-2.234-0.379-1.641-1.054-2.234c-0.675-0.592-1.591-0.925-2.546-0.925h-12zM18 13.368h-12c-1.591 0-3.117 0.555-4.243 1.542s-1.757 2.327-1.757 3.723 0.632 2.736 1.757 3.723c1.125 0.987 2.651 1.542 4.243 1.542h12c1.591 0 3.117-0.555 4.243-1.542s1.757-2.326 1.757-3.723-0.632-2.736-1.757-3.723c-1.125-0.987-2.651-1.542-4.243-1.542v0zM18 21.791c-0.955 0-1.87-0.333-2.546-0.925s-1.054-1.396-1.054-2.234 0.379-1.641 1.054-2.234c0.675-0.592 1.591-0.925 2.546-0.925s1.87 0.333 2.546 0.925c0.675 0.592 1.054 1.396 1.054 2.234s-0.379 1.641-1.054 2.234c-0.675 0.592-1.591 0.925-2.546 0.925z"></path>
</svg>
