<svg xmlns="http://www.w3.org/2000/svg" width="1em" height="1em" viewBox="0 0 24 24">
<path opacity="0.85" fill="currentColor" d="M1 12c0-6.075 4.925-11 11-11s11 4.925 11 11-4.925 11-11 11-11-4.925-11-11zM12 5c-0.552 0-1 0.448-1 1v0 1.5c0 0.552 0.448 1 1 1s1-0.448 1-1v-1.5c0-0.552-0.448-1-1-1v0zM16.95 7.050c-0.181-0.181-0.431-0.293-0.708-0.293s-0.527 0.112-0.707 0.293v0l-1.060 1.060c-0.181 0.181-0.293 0.431-0.293 0.708 0 0.552 0.448 1 1 1 0.276 0 0.526-0.112 0.707-0.293l1.060-1.060c0.181-0.181 0.293-0.431 0.293-0.708s-0.112-0.526-0.293-0.707v0zM16.5 11c-0.552 0-1 0.448-1 1s0.448 1 1 1h1.5c0.552 0 1-0.448 1-1s-0.448-1-1-1h-1.5zM14.475 14.475c-0.181 0.181-0.293 0.431-0.293 0.707s0.112 0.526 0.293 0.707l1.060 1.060c0.18 0.174 0.425 0.281 0.695 0.281 0.552 0 1-0.448 1-1 0-0.27-0.107-0.515-0.28-0.694l-1.061-1.061c-0.181-0.181-0.431-0.293-0.707-0.293s-0.526 0.112-0.707 0.293v0zM13 16.5c0-0.552-0.448-1-1-1s-1 0.448-1 1v1.5c0 0.552 0.448 1 1 1s1-0.448 1-1v-1.5zM9.525 14.475c-0.181-0.181-0.431-0.293-0.707-0.293s-0.526 0.112-0.707 0.293l-1.060 1.060c-0.189 0.182-0.306 0.437-0.306 0.72 0 0.552 0.448 1 1 1 0.282 0 0.537-0.117 0.719-0.304l0-0 1.061-1.060c0.181-0.181 0.293-0.431 0.293-0.708s-0.112-0.527-0.293-0.707v0zM6 11c-0.552 0-1 0.448-1 1s0.448 1 1 1h1.5c0.552 0 1-0.448 1-1s-0.448-1-1-1h-1.5zM7.050 7.050c-0.181 0.181-0.293 0.431-0.293 0.707s0.112 0.526 0.293 0.707l1.060 1.061c0.181 0.181 0.431 0.293 0.708 0.293 0.552 0 1-0.448 1-1 0-0.276-0.112-0.526-0.293-0.707l-1.060-1.060c-0.181-0.181-0.431-0.293-0.708-0.293s-0.526 0.112-0.707 0.293v0z"></path>
</svg>
